# xmcd
#
# Track frame offsets:
#	150
#	21110
#	35862
#	55422
#	75585
#	92180
#	112472
#	130887
#	145820
#	163480
#	171789
#	185814
#	202841
#	219268
#	231640
#	258775
#	281700
#	299852
#
# Disc length: 4199 seconds
#
# Revision: 1
# Processed by: cddbd v1.4PL0 Copyright (c) Steve Scherf et al.
# Submitted via: EasyCDDAExtractor 5.0.6
#
DISCID=25106512
DTITLE=Paul de Leeuw - ParaCdmol
DYEAR=1900
DGENRE=National Folk
TTITLE0=Samen
TTITLE1=Zomer zonder jou
TTITLE2=Je hoort bij mij
TTITLE3=wacht nog wat (geef wel een teken)
TTITLE4=Lachen dat kan ik niet
TTITLE5=Voorbij
TTITLE6=Boerenlul
TTITLE7=Aan de andere kant van de heuvels
TTITLE8=Ik wil niet dat je liegt
TTITLE9=Zeg het mij
TTITLE10=Medeleven
TTITLE11=Volgeltje wat zing je vroeg
TTITLE12=Als ik vrijen wil
TTITLE13=Zomaar een dag
TTITLE14=Wie oh wie
TTITLE15=bob en annie de rooi 1
TTITLE16=bob en anni de rooi 2
TTITLE17=bob en anni de rooi 3
EXTD=
EXTT0=
EXTT1=
EXTT2=
EXTT3=
EXTT4=
EXTT5=
EXTT6=
EXTT7=
EXTT8=
EXTT9=
EXTT10=
EXTT11=
EXTT12=
EXTT13=
EXTT14=
EXTT15=
EXTT16=
EXTT17=
PLAYORDER=
